<svg width="29" height="29" viewBox="0 0 29 29" fill="none" xmlns="http://www.w3.org/2000/svg">
    <path fill-rule="evenodd" clip-rule="evenodd"
          d="M11.7989 21.3331C11.7989 21.3331 17.0014 23.3116 20.039 19.8312C23.0767 16.3508 22.2361 12.1954 22.2361 12.1954C22.2361 12.1954 24.618 12.4289 25.7104 12.1954C26.8028 11.9619 26.8028 10.0926 26.8028 10.0926C26.8028 10.0926 28.0769 8.76577 27.9963 7.43039C27.9275 6.28995 27.6141 6.125 26.9191 5.75925C26.8003 5.69674 26.6703 5.62835 26.5285 5.54823C25.5573 4.99934 23.3952 4.57311 23.3952 4.57311C23.3952 4.57311 24.3355 2.3404 23.2425 1.44317C22.1494 0.545951 20.6424 0.11024 18.9517 0.925684C17.7325 1.51368 17.5922 2.30219 17.458 3.05627C17.406 3.34797 17.355 3.63452 17.2429 3.90232C16.8735 4.78417 16.287 6.39964 16.287 6.39964C16.287 6.39964 11.6626 5.85541 8.80784 8.75437C5.95304 11.6533 6.94821 16.3508 6.94821 16.3508C6.94821 16.3508 4.85849 15.9557 3.6776 15.9247C3.61635 15.9231 3.55099 15.9209 3.48219 15.9185C2.71487 15.8919 1.51947 15.8505 0.835181 16.5401C0.0895392 17.2916 -0.13874 17.8438 0.0783516 19.5522C0.295443 21.2607 3.22492 21.8634 3.22492 21.8634C3.56221 22.2163 3.70785 22.86 3.8535 23.5036C3.99914 24.1472 4.14478 24.7908 4.48207 25.1437C5.17271 25.8663 7.32056 26.1485 7.32056 26.1485C7.32056 26.1485 8.13956 27.9546 9.44057 27.9854C9.52086 27.9873 9.59786 27.9896 9.67173 27.9917C10.7948 28.0247 11.1957 28.0365 11.4836 26.4272C11.7904 24.7121 11.7989 21.3331 11.7989 21.3331ZM12.5517 10.5837C11.8849 10.9364 10.6045 12.6815 10.6045 12.6815L11.3675 10.5837C11.3675 10.5837 12.1442 9.65602 12.8317 9.58463C13.7116 9.49325 16.8821 9.30639 16.8821 9.30639C16.8821 9.30639 13.411 10.1293 12.5517 10.5837Z"
          fill="black"/>
</svg>
