<svg width="29" height="29" viewBox="0 0 29 29" fill="none" xmlns="http://www.w3.org/2000/svg">
    <path fill-rule="evenodd" clip-rule="evenodd"
          d="M13 26C20.1797 26 26 20.1797 26 13C26 5.8203 20.1797 0 13 0C5.8203 0 0 5.8203 0 13C0 20.1797 5.8203 26 13 26ZM8.28902 13.2493C8.28902 13.2493 8.53323 11.8535 8.80414 11.2327C9.02875 10.718 9.7756 9.84265 9.7756 9.84265L4.94827 4.15612C4.94827 4.15612 3.1983 6.39792 2.57784 7.70731C1.93761 9.05842 1.16619 12.1376 1.16619 12.1376L8.28902 13.2493ZM5.72231 3.78092L6.96733 2.86288L10.5504 9.07722L10.0256 9.52248L5.72231 3.78092ZM16.5973 16.219C16.5973 16.219 17.357 14.9162 17.3771 14.8599C17.7295 13.8713 17.7146 13.0842 17.7146 13.0842L24.718 13.7672C24.718 13.7672 24.2785 16.5864 23.7376 17.7563C23.0804 19.1777 21.1235 21.5412 21.1235 21.5412L16.5973 16.219ZM15.5886 17.0288L16.3462 16.3942L20.4314 22.0576L19.139 23.1153L15.5886 17.0288ZM13 17.0123C15.216 17.0123 17.0123 15.216 17.0123 13C17.0123 10.784 15.216 8.98765 13 8.98765C10.784 8.98765 8.98765 10.784 8.98765 13C8.98765 15.216 10.784 17.0123 13 17.0123ZM13 16.0999C14.6841 16.0999 16.0494 14.7346 16.0494 13.0504C16.0494 11.3661 14.6841 10.0008 13 10.0008C11.3159 10.0008 9.95062 11.3661 9.95062 13.0504C9.95062 14.7346 11.3159 16.0999 13 16.0999ZM13 14.1235C13.6205 14.1235 14.1235 13.6205 14.1235 13C14.1235 12.3795 13.6205 11.8765 13 11.8765C12.3795 11.8765 11.8765 12.3795 11.8765 13C11.8765 13.6205 12.3795 14.1235 13 14.1235Z"
          fill="black"/>
</svg>