<svg width="29" height="29" viewBox="0 0 29 29" fill="none" xmlns="http://www.w3.org/2000/svg">
    <path fill-rule="evenodd" clip-rule="evenodd"
          d="M8.50732 24.9601C9.07045 25.9115 10.3698 25.7021 10.3497 25.9115C10.2803 26.6372 10.2558 26.1886 10.3497 26.6785C10.4832 27.3746 11.0346 27.7283 11.2303 27.7283C11.3873 27.7283 11.7149 27.4568 11.8119 26.9718C11.8437 26.8125 11.7783 26.5019 11.8119 26.3093C11.902 25.793 11.9156 25.6257 12.7066 25.3799C13.0913 25.2605 13.521 25.0326 14.499 24.9096C14.9057 24.8585 15.3677 25.2305 15.3677 25.2305C15.3677 25.2305 16.8663 25.8578 17.523 25.9115C17.8428 25.9376 18.9882 25.8295 18.9882 25.8295C18.9882 25.8295 19.0191 26.9763 19.2354 27.3582C19.6118 28.0226 20.2625 28.3505 20.2625 28.3505C20.2625 28.3505 20.6234 27.6785 20.6438 27.176C20.6534 26.9404 20.3191 26.3772 20.2625 25.9991C20.19 25.5143 20.3895 25.2305 20.3895 25.2305C20.3895 25.2305 20.7373 24.4277 20.9562 24.0372C21.3327 23.3653 21.4226 23.0182 21.397 22.3614C21.3714 21.7047 20.3219 21.1302 20.8374 20.9948C22.3007 20.6104 23.1046 20.0446 23.1046 20.0446L21.8611 17.9605L23.7074 16.1573L23.1046 13.0321L29 9.43928L27.5422 3.26838C27.5422 3.26838 24.8819 5.42147 23.6086 6.66877C22.243 8.00655 19.6254 11.0236 19.6254 11.0236L21.5588 15.4023L19.2354 17.343C19.2354 17.343 20.8375 19.4798 21.2469 19.3868C21.5981 19.307 20.2268 19.6521 20.1576 19.6521C20.1567 19.6521 15.6682 13.34 15.6682 13.34C15.6682 13.34 14.4228 9.09715 14.5392 8.8195C14.798 8.20192 14.8762 8.81177 15.6682 8.64398C16.7415 8.41661 18.0954 7.71247 18.8161 7.22922C20.0686 6.38939 22.9125 5.06048 21.8611 4.45575C21.4597 4.22487 20.771 4.37035 20.1576 4.38472C19.1644 4.408 18.0712 4.488 16.4946 5.06055C14.2285 5.88357 12.5026 7.22922 12.5026 7.22922C12.5026 7.22922 11.4038 6.94254 9.78403 6.58134C8.16426 6.22014 7.02844 7.54692 6.81673 6.58134C6.76353 6.33871 6.96468 6.15493 7.05867 5.86083C7.26732 5.20791 7.54232 4.45575 7.54232 4.45575C7.54232 4.45575 7.79934 3.28708 7.85604 2.13331C7.90297 1.17863 7.77176 0.229868 7.61056 9.6629e-05C7.60344 -0.0100514 6.82577 0.78052 6.29693 1.70636C5.81502 2.55004 5.57729 3.53622 5.57729 3.53622C5.57729 3.53622 5.23751 4.16504 5.0304 5.78459C4.95184 6.39883 5.05196 7.31551 4.96339 8.16039C4.90136 8.752 4.66834 8.67342 4.46166 9.04626C3.97386 9.92617 3.81756 11.3072 3.81756 11.3072C3.81756 11.3072 3.00571 12.0824 3.40214 13.4562C3.79857 14.83 5.28 15.5752 5.0304 15.5102C4.64083 15.4086 3.61192 15.6694 2.92661 16.0378C2.40848 16.3163 2.20583 16.7313 1.94726 16.6712C1.26361 16.5123 1.00707 17.0007 1.00707 17.0007C1.00707 17.0007 1.82019 16.9353 1.8436 17.2084C1.867 17.4815 1.08932 17.8173 1.08932 17.8881C1.08932 17.959 1.85827 17.631 1.91512 18.1147C1.97197 18.5985 1.60955 18.7848 1.08932 18.8007C0.384667 18.8223 3.89543 19.0919 4.70738 19.2146C5.68584 19.3623 7.35694 19.9841 7.35694 19.9841C7.35694 19.9841 7.97838 20.4107 7.97838 20.9948C7.97838 21.8861 7.85604 23.1118 7.85604 23.719C7.85604 23.9502 7.94419 24.0088 8.50732 24.9601Z"
          fill="black"/>
</svg>
